<svg width="34" height="35" viewBox="0 0 34 35" fill="none" xmlns="http://www.w3.org/2000/svg">
    <path
            d="M17.0001 2.30957L1.99231 17.2552V33.5757C1.99231 34.1258 2.43829 34.5718 2.9884 34.5718H31.0118C31.562 34.5718 32.0079 34.1258 32.0079 33.5757V17.2552L17.0001 2.30957Z"
            fill="url(#paint0_linear)"/>
    <path
            d="M32.3007 18.2112L16.9997 2.97361L1.69861 18.2112C1.30874 18.5993 0.678009 18.5981 0.289931 18.2083C-0.0982801 17.8185 -0.0969519 17.1878 0.292853 16.7996L16.2968 0.862089C16.6854 0.475007 17.3138 0.475007 17.7025 0.862089L33.7064 16.7996C34.0962 17.1878 34.0976 17.8185 33.7093 18.2083C33.3212 18.5981 32.6905 18.5993 32.3007 18.2112Z"
            fill="url(#paint1_linear)"/>
    <path
            d="M20.9845 22.4858H13.0157C12.4656 22.4858 12.0197 22.9318 12.0197 23.4819V34.5718H21.9806V23.4819C21.9806 22.9318 21.5346 22.4858 20.9845 22.4858Z"
            fill="url(#paint2_linear)"/>
    <path
            d="M17.0001 20.4937C14.2539 20.4937 12.0197 18.2594 12.0197 15.5132C12.0197 12.767 14.2539 10.5327 17.0001 10.5327C19.7464 10.5327 21.9806 12.767 21.9806 15.5132C21.9806 18.2594 19.7464 20.4937 17.0001 20.4937Z"
            fill="url(#paint3_linear)"/>
    <defs>
        <linearGradient id="paint0_linear" x1="17.0001" y1="34.5718" x2="17.0001" y2="2.30957"
                        gradientUnits="userSpaceOnUse">
            <stop stop-color="#0047FD" stop-opacity="0.87"/>
            <stop offset="1" stop-color="#00A3FF"/>
        </linearGradient>
        <linearGradient id="paint1_linear" x1="16.9997" y1="18.5014" x2="16.9997" y2="0.57176"
                        gradientUnits="userSpaceOnUse">
            <stop stop-color="#BA9AFF"/>
            <stop offset="1" stop-color="#E2D5FF"/>
        </linearGradient>
        <linearGradient id="paint2_linear" x1="17.0001" y1="34.5718" x2="17.0001" y2="22.4858"
                        gradientUnits="userSpaceOnUse">
            <stop stop-color="#9AC2FF"/>
            <stop offset="1" stop-color="#D5F2FF"/>
        </linearGradient>
        <linearGradient id="paint3_linear" x1="17.0001" y1="20.4937" x2="17.0001" y2="10.5327"
                        gradientUnits="userSpaceOnUse">
            <stop stop-color="#9AC2FF"/>
            <stop offset="1" stop-color="#E7D5FF"/>
        </linearGradient>
    </defs>
</svg>
