<svg width="34" height="35" viewBox="0 0 34 35" fill="none" xmlns="http://www.w3.org/2000/svg">
<path d="M17.0001 2.30908L1.99231 17.2547V33.5752C1.99231 34.1253 2.43829 34.5713 2.9884 34.5713H31.0118C31.562 34.5713 32.0079 34.1253 32.0079 33.5752V17.2547L17.0001 2.30908Z" fill="url(#paint0_linear)"/>
<path d="M32.3007 18.2109L16.9997 2.97336L1.69861 18.2109C1.30874 18.5991 0.678009 18.5978 0.289931 18.208C-0.0982801 17.8182 -0.0969519 17.1876 0.292853 16.7993L16.2968 0.861845C16.6854 0.474763 17.3138 0.474763 17.7025 0.861845L33.7064 16.7993C34.0962 17.1876 34.0976 17.8182 33.7093 18.208C33.3212 18.5978 32.6905 18.5991 32.3007 18.2109Z" fill="url(#paint1_linear)"/>
<path d="M20.9845 22.4854H13.0157C12.4656 22.4854 12.0197 22.9313 12.0197 23.4814V34.5713H21.9806V23.4814C21.9806 22.9313 21.5346 22.4854 20.9845 22.4854Z" fill="url(#paint2_linear)"/>
<path d="M17.0001 20.4932C14.2539 20.4932 12.0197 18.2589 12.0197 15.5127C12.0197 12.7665 14.2539 10.5322 17.0001 10.5322C19.7464 10.5322 21.9806 12.7665 21.9806 15.5127C21.9806 18.2589 19.7464 20.4932 17.0001 20.4932Z" fill="url(#paint3_linear)"/>
<defs>
<linearGradient id="paint0_linear" x1="17.0001" y1="34.5713" x2="17.0001" y2="2.30908" gradientUnits="userSpaceOnUse">
<stop stop-color="#646464" stop-opacity="0.87"/>
<stop offset="1" stop-color="#BCBCBC"/>
</linearGradient>
<linearGradient id="paint1_linear" x1="16.9997" y1="18.5012" x2="16.9997" y2="0.571516" gradientUnits="userSpaceOnUse">
<stop stop-color="#C9C9C9"/>
<stop offset="1" stop-color="#E8E8E8"/>
</linearGradient>
<linearGradient id="paint2_linear" x1="17.0001" y1="34.5713" x2="17.0001" y2="22.4854" gradientUnits="userSpaceOnUse">
<stop stop-color="#B8B8B8"/>
<stop offset="1" stop-color="#DBDBDB"/>
</linearGradient>
<linearGradient id="paint3_linear" x1="17.0001" y1="20.4932" x2="17.0001" y2="10.5322" gradientUnits="userSpaceOnUse">
<stop stop-color="#ABABAB"/>
<stop offset="1" stop-color="#F9F9F9"/>
</linearGradient>
</defs>
</svg>
