<svg width="800" height="109" viewBox="0 0 800 109" fill="none" xmlns="http://www.w3.org/2000/svg">
<rect x="142" y="19" width="243" height="68" rx="2" fill="#FFD64E"/>
<path d="M142 103.308V86C142 84.8954 142.895 84 144 84H162.029C163.83 84 164.713 86.1951 163.414 87.4428L145.385 104.75C144.114 105.971 142 105.07 142 103.308Z" fill="#FFD64E"/>
<path d="M69.2939 38.292H63.7289V42.161C63.7289 44.44 62.5099 46.189 59.7539 46.189H58.4289V51.648H63.1989V64.633C63.1989 69.456 66.1669 72.318 70.9369 72.318C73.1629 72.318 74.3289 71.894 74.6999 71.735V66.647C74.4349 66.7 73.4279 66.859 72.5799 66.859C70.3009 66.859 69.2939 65.905 69.2939 63.626V51.648H74.6469V46.189H69.2939V38.292ZM86.1222 56.842C86.2282 53.556 88.0832 51.012 91.4752 51.012C95.3442 51.012 96.7752 53.556 96.7752 56.736V72H102.923V55.676C102.923 50.005 99.8492 45.447 93.4892 45.447C90.7862 45.447 87.8712 46.401 86.1222 48.68V33.628H79.9742V72H86.1222V56.842ZM114.436 56.259C114.648 53.503 116.874 50.535 120.743 50.535C124.983 50.535 126.997 53.238 127.103 56.259H114.436ZM127.792 62.99C126.944 65.534 125.036 67.495 121.326 67.495C117.51 67.495 114.436 64.686 114.277 60.764H133.145C133.198 60.658 133.304 59.81 133.304 58.803C133.304 50.641 128.64 45.394 120.69 45.394C114.171 45.394 108.129 50.8 108.129 58.962C108.129 67.707 114.33 72.795 121.326 72.795C127.527 72.795 131.608 69.138 132.986 64.633L127.792 62.99ZM157.943 57.107C157.943 53.715 159.798 51.012 163.296 51.012C167.165 51.012 168.596 53.556 168.596 56.736V72H174.744V55.676C174.744 50.005 171.723 45.447 165.416 45.447C162.554 45.447 159.48 46.666 157.784 49.634V46.189H151.795V72H157.943V57.107ZM186.257 56.259C186.469 53.503 188.695 50.535 192.564 50.535C196.804 50.535 198.818 53.238 198.924 56.259H186.257ZM199.613 62.99C198.765 65.534 196.857 67.495 193.147 67.495C189.331 67.495 186.257 64.686 186.098 60.764H204.966C205.019 60.658 205.125 59.81 205.125 58.803C205.125 50.641 200.461 45.394 192.511 45.394C185.992 45.394 179.95 50.8 179.95 58.962C179.95 67.707 186.151 72.795 193.147 72.795C199.348 72.795 203.429 69.138 204.807 64.633L199.613 62.99ZM206.981 72H214.03C214.507 71.205 219.33 64.156 219.86 63.361L225.849 72H233.057L223.676 58.856L232.739 46.189H225.743L220.125 54.457C219.648 53.715 214.931 46.984 214.454 46.189H207.14L216.362 58.962L206.981 72ZM245.434 38.292H239.869V42.161C239.869 44.44 238.65 46.189 235.894 46.189H234.569V51.648H239.339V64.633C239.339 69.456 242.307 72.318 247.077 72.318C249.303 72.318 250.469 71.894 250.84 71.735V66.647C250.575 66.7 249.568 66.859 248.72 66.859C246.441 66.859 245.434 65.905 245.434 63.626V51.648H250.787V46.189H245.434V38.292ZM275.765 72V33.628H269.617V72H275.765ZM287.723 56.259C287.935 53.503 290.161 50.535 294.03 50.535C298.27 50.535 300.284 53.238 300.39 56.259H287.723ZM301.079 62.99C300.231 65.534 298.323 67.495 294.613 67.495C290.797 67.495 287.723 64.686 287.564 60.764H306.432C306.485 60.658 306.591 59.81 306.591 58.803C306.591 50.641 301.927 45.394 293.977 45.394C287.458 45.394 281.416 50.8 281.416 58.962C281.416 67.707 287.617 72.795 294.613 72.795C300.814 72.795 304.895 69.138 306.273 64.633L301.079 62.99ZM335.004 46.189H328.538L321.86 64.633L315.023 46.189H308.239L318.733 72H324.881L335.004 46.189ZM342.781 56.259C342.993 53.503 345.219 50.535 349.088 50.535C353.328 50.535 355.342 53.238 355.448 56.259H342.781ZM356.137 62.99C355.289 65.534 353.381 67.495 349.671 67.495C345.855 67.495 342.781 64.686 342.622 60.764H361.49C361.543 60.658 361.649 59.81 361.649 58.803C361.649 50.641 356.985 45.394 349.035 45.394C342.516 45.394 336.474 50.8 336.474 58.962C336.474 67.707 342.675 72.795 349.671 72.795C355.872 72.795 359.953 69.138 361.331 64.633L356.137 62.99ZM373.407 72V33.628H367.259V72H373.407ZM398.247 56.259C398.459 53.503 400.685 50.535 404.554 50.535C408.794 50.535 410.808 53.238 410.914 56.259H398.247ZM411.603 62.99C410.755 65.534 408.847 67.495 405.137 67.495C401.321 67.495 398.247 64.686 398.088 60.764H416.956C417.009 60.658 417.115 59.81 417.115 58.803C417.115 50.641 412.451 45.394 404.501 45.394C397.982 45.394 391.94 50.8 391.94 58.962C391.94 67.707 398.141 72.795 405.137 72.795C411.338 72.795 415.419 69.138 416.797 64.633L411.603 62.99ZM445.527 46.189H439.061L432.383 64.633L425.546 46.189H418.762L429.256 72H435.404L445.527 46.189ZM453.305 56.259C453.517 53.503 455.743 50.535 459.612 50.535C463.852 50.535 465.866 53.238 465.972 56.259H453.305ZM466.661 62.99C465.813 65.534 463.905 67.495 460.195 67.495C456.379 67.495 453.305 64.686 453.146 60.764H472.014C472.067 60.658 472.173 59.81 472.173 58.803C472.173 50.641 467.509 45.394 459.559 45.394C453.04 45.394 446.998 50.8 446.998 58.962C446.998 67.707 453.199 72.795 460.195 72.795C466.396 72.795 470.477 69.138 471.855 64.633L466.661 62.99ZM483.931 57.107C483.931 53.715 485.786 51.012 489.284 51.012C493.153 51.012 494.584 53.556 494.584 56.736V72H500.732V55.676C500.732 50.005 497.711 45.447 491.404 45.447C488.542 45.447 485.468 46.666 483.772 49.634V46.189H477.783V72H483.931V57.107ZM515.742 38.292H510.177V42.161C510.177 44.44 508.958 46.189 506.202 46.189H504.877V51.648H509.647V64.633C509.647 69.456 512.615 72.318 517.385 72.318C519.611 72.318 520.777 71.894 521.148 71.735V66.647C520.883 66.7 519.876 66.859 519.028 66.859C516.749 66.859 515.742 65.905 515.742 63.626V51.648H521.095V46.189H515.742V38.292ZM546.02 82.07V69.085C547.345 71.046 550.154 72.636 553.864 72.636C561.284 72.636 566.001 66.806 566.001 59.068C566.001 51.436 561.708 45.606 554.076 45.606C550.101 45.606 547.133 47.461 545.861 49.687V46.189H539.925V82.07H546.02ZM559.853 59.068C559.853 63.997 556.991 67.177 552.91 67.177C548.882 67.177 545.967 63.997 545.967 59.068C545.967 54.245 548.882 51.065 552.91 51.065C557.044 51.065 559.853 54.245 559.853 59.068ZM577.795 72V33.628H571.647V72H577.795ZM583.766 65.004C583.766 69.085 587.105 72.795 592.511 72.795C596.698 72.795 599.242 70.675 600.461 68.714C600.461 70.781 600.673 71.841 600.726 72H606.45C606.397 71.735 606.132 70.198 606.132 67.866V55.04C606.132 49.899 603.111 45.394 595.161 45.394C588.801 45.394 584.773 49.369 584.296 53.821L589.914 55.093C590.179 52.496 591.981 50.429 595.214 50.429C598.606 50.429 600.09 52.178 600.09 54.351C600.09 55.252 599.666 55.994 598.182 56.206L591.557 57.213C587.158 57.849 583.766 60.393 583.766 65.004ZM593.677 67.972C591.239 67.972 589.914 66.382 589.914 64.633C589.914 62.513 591.451 61.453 593.359 61.135L600.09 60.128V61.294C600.09 66.329 597.122 67.972 593.677 67.972ZM620.987 38.292H615.422V42.161C615.422 44.44 614.203 46.189 611.447 46.189H610.122V51.648H614.892V64.633C614.892 69.456 617.86 72.318 622.63 72.318C624.856 72.318 626.022 71.894 626.393 71.735V66.647C626.128 66.7 625.121 66.859 624.273 66.859C621.994 66.859 620.987 65.905 620.987 63.626V51.648H626.34V46.189H620.987V38.292ZM643.736 38.875C644.902 38.875 645.591 39.034 645.962 39.14V33.893C645.538 33.681 644.266 33.363 642.729 33.363C637.429 33.363 633.719 36.861 633.719 42.638V46.189H629.214V51.542H633.719V72H639.92V51.542H645.909V46.189H639.92V42.797C639.92 39.617 642.093 38.875 643.736 38.875ZM661.118 67.283C657.355 67.283 653.91 64.421 653.91 59.068C653.91 53.715 657.355 50.959 661.118 50.959C664.934 50.959 668.326 53.715 668.326 59.068C668.326 64.474 664.934 67.283 661.118 67.283ZM661.118 45.394C653.433 45.394 647.762 51.171 647.762 59.068C647.762 67.018 653.433 72.795 661.118 72.795C668.856 72.795 674.527 67.018 674.527 59.068C674.527 51.171 668.856 45.394 661.118 45.394ZM695.308 46.03C695.043 45.977 694.407 45.871 693.665 45.871C690.273 45.871 687.411 47.514 686.192 50.323V46.189H680.203V72H686.351V59.704C686.351 54.881 688.524 52.125 693.294 52.125C693.93 52.125 694.619 52.178 695.308 52.284V46.03ZM706.271 72V56.683C706.271 53.397 708.338 50.959 711.624 50.959C715.122 50.959 716.606 53.291 716.606 56.259V72H722.648V56.683C722.648 53.503 724.768 50.959 728.001 50.959C731.446 50.959 732.983 53.238 732.983 56.259V72H738.919V55.252C738.919 48.415 734.467 45.447 729.803 45.447C726.464 45.447 723.443 46.613 721.429 50.005C720.051 46.984 717.083 45.447 713.691 45.447C710.776 45.447 707.543 46.825 706.059 49.475V46.189H700.176V72H706.271Z" fill="#02022D"/>
<path d="M764.106 109L764 94.5814L785.356 94.4242L785.177 72.1153L799.704 72L800 108.743L764.106 109Z" fill="#FF4959"/>
<g clip-path="url(#clip0)">
<path d="M35.8945 3.82392e-06L36 14.4186L14.6438 14.5758L14.8232 36.8847L0.295513 37L-3.2122e-06 0.256736L35.8945 3.82392e-06Z" fill="#FF4959"/>
</g>
<defs>
<clipPath id="clip0">
<rect x="36" y="37" width="36" height="37" transform="rotate(180 36 37)" fill="white"/>
</clipPath>
</defs>
</svg>
