<svg width="134" height="29" viewBox="0 0 134 29" fill="none" xmlns="http://www.w3.org/2000/svg">
<g clip-path="url(#clip0)">
<path d="M40.519 16.4147C40.6576 17.9312 41.8087 19.2762 43.9686 19.2762C45.6415 19.2762 46.5116 18.3789 46.5116 17.3444C46.5116 16.4471 45.884 15.7574 44.5249 15.4831L42.0166 14.9306C39.0213 14.2752 37.4524 12.3453 37.4524 10.0344C37.4524 7.10239 40.1705 4.62 43.6895 4.62C48.4289 4.62 49.9612 7.65488 50.2403 9.31044L46.8253 10.2763C46.6867 9.31044 45.9552 7.75966 43.6895 7.75966C42.2611 7.75966 41.2505 8.65698 41.2505 9.69147C41.2505 10.5888 41.9127 11.2442 42.958 11.4499L45.5356 11.9662C48.7427 12.6559 50.4155 14.5858 50.4155 17.0682C50.4155 19.6191 48.3249 22.4483 44.0052 22.4483C39.0925 22.4483 37.2118 19.2762 37.002 17.3787L40.519 16.4147Z" fill="#02022D"/>
<path d="M58.4967 5.13815H62.0156V8.68933H58.4967V16.4832C58.4967 17.9654 59.1589 18.5865 60.6566 18.5865C61.2148 18.5865 61.8751 18.4836 62.0503 18.4493V21.7605C61.8058 21.8634 61.0396 22.1396 59.5766 22.1396C56.4408 22.1396 54.4888 20.2783 54.4888 17.1386V8.68933H51.3549V5.13815H52.225C54.0364 5.13815 54.8372 4.00079 54.8372 2.51669V0H58.4967V5.13815Z" fill="#02022D"/>
<path d="M69.2287 12.311L73.5851 11.6556C74.5611 11.5185 74.8402 11.0346 74.8402 10.4497C74.8402 9.03608 73.8642 7.89871 71.635 7.89871C69.5098 7.89871 68.3259 9.24374 68.1507 10.9336L64.4566 10.1068C64.7704 7.21096 67.4173 4.62378 71.5985 4.62378C76.8249 4.62378 78.8115 7.55388 78.8115 10.8993V19.2419C78.8115 20.7584 78.9848 21.7586 79.0213 21.932H75.2579C75.2233 21.8291 75.0847 21.1394 75.0847 19.7944C74.2839 21.0708 72.611 22.4501 69.8582 22.4501C66.3046 22.4501 64.1101 20.0363 64.1101 17.3806C64.1063 14.38 66.3374 12.7244 69.2287 12.311ZM74.8383 14.9649V14.2066L70.4126 14.862C69.1575 15.0696 68.1488 15.7593 68.1488 17.1386C68.1488 18.276 69.0189 19.3105 70.6225 19.3105C72.8863 19.3105 74.8383 18.2417 74.8383 14.9649Z" fill="#02022D"/>
<path d="M85.1179 21.8957C85.3971 23.9647 87.0353 25.5174 89.3684 25.5174C92.5735 25.5174 94.1771 23.8961 94.1771 20.4821V18.7237C93.4456 20.0344 91.7381 21.1718 89.2644 21.1718C84.7348 21.1718 81.4238 17.7235 81.4238 12.9987C81.4238 8.51594 84.5943 4.82568 89.2644 4.82568C91.9133 4.82568 93.5495 5.89447 94.281 7.27379V5.13813H98.1831V20.3449C98.1831 24.8277 95.848 29 89.4723 29C84.9774 29 81.8415 26.2413 81.3892 22.8616L85.1179 21.8957ZM94.281 13.0006C94.281 10.1391 92.4349 8.27589 89.9247 8.27589C87.3471 8.27589 85.4991 10.1372 85.4991 13.0006C85.4991 15.9307 87.2759 17.7597 89.9247 17.7597C92.5042 17.7578 94.281 15.8964 94.281 13.0006Z" fill="#02022D"/>
<path d="M117.102 17.1387C116.196 20.0707 113.514 22.4483 109.437 22.4483C104.838 22.4483 100.761 19.1371 100.761 13.4484C100.761 8.13878 104.732 4.62 109.019 4.62C114.246 4.62 117.312 8.034 117.312 13.3436C117.312 13.999 117.243 14.5496 117.208 14.6201H104.803C104.907 17.171 106.929 19 109.437 19C111.876 19 113.131 17.7235 113.687 16.068L117.102 17.1387ZM113.235 11.69C113.166 9.72386 111.841 7.96542 109.054 7.96542C106.511 7.96542 105.048 9.89723 104.907 11.69H113.235Z" fill="#02022D"/>
<path d="M124.209 12.311L128.564 11.6556C129.54 11.5185 129.819 11.0346 129.819 10.4497C129.819 9.03608 128.843 7.89871 126.614 7.89871C124.488 7.89871 123.305 9.24374 123.129 10.9336L119.435 10.1068C119.749 7.21096 122.396 4.62378 126.577 4.62378C131.804 4.62378 133.79 7.55388 133.79 10.8993V19.2419C133.79 20.7584 133.965 21.7586 134 21.932H130.237C130.202 21.8291 130.061 21.1394 130.061 19.7944C129.261 21.0708 127.588 22.4501 124.835 22.4501C121.281 22.4501 119.085 20.0363 119.085 17.3806C119.089 14.38 121.318 12.7244 124.209 12.311ZM129.819 14.9649V14.2066L125.393 14.862C124.138 15.0696 123.129 15.7593 123.129 17.1386C123.129 18.276 124 19.3105 125.603 19.3105C127.869 19.3105 129.819 18.2417 129.819 14.9649Z" fill="#02022D"/>
</g>
<path d="M0.0381285 23.014L0.00292969 18.1183L7.19821 18.0655L7.13955 10.4948L12.0322 10.4567L12.132 22.926L0.0381285 23.014Z" fill="#506CF0"/>
<path d="M4.89268 14.5397L0 14.5368L0.00586665 2.03226L12.0821 2L12.0938 6.89561L4.89854 6.91321L4.89268 14.5397Z" fill="#506CF0"/>
<defs>
<clipPath id="clip0">
<rect x="37" width="97" height="29" fill="white"/>
</clipPath>
</defs>
</svg>
