<svg width="842" height="488" viewBox="0 0 842 488" fill="none" xmlns="http://www.w3.org/2000/svg">
<g filter="url(#filter0_d)">
<path d="M204.596 102.431L282.424 147.365C285.772 149.298 291.2 149.298 294.548 147.365L459.839 51.9341C463.187 50.0011 468.615 50.0011 471.963 51.9341L821.6 253.797C824.948 255.73 824.948 258.864 821.6 260.797L466.713 465.691C463.365 467.624 457.937 467.624 454.589 465.691L387.611 427.021L21.0621 215.394C17.7141 213.461 17.7141 210.327 21.0621 208.394L149.253 134.383" stroke="#E4E6EE" stroke-width="4.5"/>
</g>
<g filter="url(#filter1_d)">
<rect width="128.183" height="97" rx="9" transform="matrix(0.866025 0.5 -0.866025 0.5 153.015 158)" fill="#7A8FF1"/>
</g>
<g opacity="0.6" filter="url(#filter2_d)">
<path d="M193.039 151.652L175.059 151.631L165.262 157.287C164.932 157.477 164.932 157.787 165.262 157.977L182.084 167.689C182.414 167.88 182.949 167.88 183.279 167.689L193.076 162.033L193.039 151.652Z" fill="url(#paint0_linear)"/>
<path d="M192.678 162.466L192.64 151.882L174.309 151.86C173.842 151.86 173.464 151.641 173.465 151.371C173.466 151.101 173.845 150.883 174.312 150.884L193.485 150.907C193.951 150.907 194.328 151.125 194.329 151.394L194.369 162.464C194.37 162.733 193.992 162.952 193.525 162.953C193.058 162.953 192.679 162.735 192.678 162.466Z" fill="url(#paint1_linear)"/>
<path d="M183.319 160.025L178.536 157.264C178.206 157.073 177.67 157.073 177.34 157.264L170.683 161.107L176.663 164.559L183.319 160.716C183.65 160.525 183.65 160.216 183.319 160.025Z" fill="url(#paint2_linear)"/>
<path d="M182.124 157.954C180.475 157.002 180.475 155.454 182.124 154.502C183.772 153.55 186.454 153.55 188.103 154.502C189.751 155.454 189.751 157.002 188.103 157.954C186.454 158.906 183.772 158.906 182.124 157.954Z" fill="url(#paint3_linear)"/>
</g>
<rect width="71.772" height="75.9901" rx="9" transform="matrix(0.866025 0.5 -0.866025 0.5 671.82 235)" fill="#D5DCFE"/>
<rect x="-2.98023e-08" y="0.5" width="70.772" height="74.9901" rx="8.5" transform="matrix(0.866025 0.5 -0.866025 0.5 672.253 235.25)" stroke="#506CF0" stroke-opacity="0.07"/>
<rect width="71.772" height="75.9901" rx="9" transform="matrix(0.866025 0.5 -0.866025 0.5 540.82 305)" fill="#D5DCFE"/>
<rect x="-2.98023e-08" y="0.5" width="70.772" height="74.9901" rx="8.5" transform="matrix(0.866025 0.5 -0.866025 0.5 541.253 305.25)" stroke="#506CF0" stroke-opacity="0.07"/>
<path d="M382.633 170L168.011 300.148" stroke="#E4E6EE" stroke-width="4.5"/>
<path d="M539.011 262L425.011 326" stroke="#E4E6EE" stroke-width="4.5" stroke-linecap="round" stroke-linejoin="round"/>
<path d="M350.967 158L274.011 204.667" stroke="#9EACF0" stroke-opacity="0.8" stroke-width="4.5" stroke-linecap="round" stroke-dasharray="8 8"/>
<path d="M186.011 121L263.953 166" stroke="#9EACF0" stroke-opacity="0.8" stroke-width="4.5" stroke-linecap="round" stroke-dasharray="8 8"/>
<path d="M483.011 149L515.92 168" stroke="#9EACF0" stroke-opacity="0.8" stroke-width="4.5" stroke-linecap="round" stroke-dasharray="8 8"/>
<path d="M372.011 351L404.92 370" stroke="#9EACF0" stroke-opacity="0.8" stroke-width="4.5" stroke-linecap="round" stroke-dasharray="8 8"/>
<path d="M597.011 222L629.92 241" stroke="#9EACF0" stroke-opacity="0.8" stroke-width="4.5" stroke-linecap="round" stroke-dasharray="8 8"/>
<path d="M622.92 299L590.011 318" stroke="#9EACF0" stroke-opacity="0.8" stroke-width="4.5" stroke-linecap="round" stroke-dasharray="8 8"/>
<path d="M499.92 370L467.011 389" stroke="#9EACF0" stroke-opacity="0.8" stroke-width="4.5" stroke-linecap="round" stroke-dasharray="8 8"/>
<path d="M414.011 190L539.463 262.709" stroke="#E4E6EE" stroke-width="4.5"/>
<path d="M141.494 205.315L143.552 204.127L138.626 201.283L147.62 196.09L145.469 194.848L134.417 201.229L141.494 205.315ZM148.097 207.219C147.083 206.634 146.896 205.662 148.33 204.834C149.78 203.997 151.448 204.114 152.461 204.699C153.475 205.284 153.677 206.247 152.227 207.084C150.778 207.921 149.11 207.804 148.097 207.219ZM154.348 203.61C152.056 202.287 148.627 202.269 146.257 203.637C143.903 204.996 143.919 206.985 146.21 208.308C148.502 209.631 151.947 209.64 154.301 208.281C156.67 206.913 156.639 204.933 154.348 203.61ZM154.113 212.601L155.049 212.061C154.799 212.673 155.142 213.411 156.202 214.023C158.385 215.283 161.549 215.112 163.872 213.771C166.148 212.457 166.584 210.711 164.339 209.415C163.202 208.758 161.861 208.56 160.972 208.677L165.431 206.103L163.389 204.924L152.103 211.44L154.113 212.601ZM161.783 212.583C160.38 213.393 158.759 213.357 157.699 212.745C156.654 212.142 156.576 211.179 157.964 210.378C159.367 209.568 161.004 209.631 162.048 210.234C163.108 210.846 163.186 211.773 161.783 212.583ZM163.658 218.112L164.594 217.572C164.344 218.184 164.687 218.922 165.747 219.534C167.93 220.794 171.094 220.623 173.417 219.282C175.693 217.968 176.129 216.222 173.884 214.926C172.746 214.269 171.406 214.071 170.517 214.188L174.976 211.614L172.933 210.435L161.647 216.951L163.658 218.112ZM171.328 218.094C169.925 218.904 168.304 218.868 167.244 218.256C166.199 217.653 166.121 216.69 167.509 215.889C168.912 215.079 170.548 215.142 171.593 215.745C172.653 216.357 172.731 217.284 171.328 218.094ZM170.453 225.526L185.963 222.133L183.75 220.855L177.374 222.358L179.821 218.587L177.499 217.246L174.054 222.997L168.255 224.257L170.453 225.526Z" fill="white"/>
<rect width="71.772" height="124.529" rx="9" transform="matrix(0.866025 0.5 -0.866025 0.5 468.856 72)" fill="#D5DCFE"/>
<a href="/platform/stage"><rect x="-2.98023e-08" y="0.5" width="70.772" height="123.529" rx="8.5" transform="matrix(0.866025 0.5 -0.866025 0.5 469.289 72.25)" stroke="#506CF0" stroke-opacity="0.07"/>
</a><path d="M427.478 122.118C425.981 121.542 423.331 121.2 420.65 122.748C418.561 123.954 418.296 125.835 420.26 126.969C421.928 127.932 424.204 127.932 426.324 127.122L428.179 126.411C429.208 126.015 430.19 126.024 430.829 126.393C431.609 126.843 431.546 127.545 430.393 128.211C428.834 129.111 427.088 128.985 425.903 128.409L424.438 129.867C426.184 130.677 429.364 131.019 432.295 129.327C434.867 127.842 434.571 126.033 432.872 125.052C431.313 124.152 428.928 124.017 426.527 124.953L424.688 125.673C423.721 126.051 422.848 125.997 422.24 125.646C421.508 125.223 421.523 124.44 422.568 123.837C423.97 123.027 425.42 123.288 426.137 123.576L427.478 122.118ZM430.384 118.658L428.513 119.738L429.589 120.359C430.274 120.755 430.43 121.277 429.62 121.745L429.23 121.97L431.069 123.032L432.457 122.231L436.027 124.292C437.507 125.147 439.331 125.12 440.828 124.256C441.436 123.905 441.701 123.626 441.81 123.473L440.095 122.483C440.017 122.564 439.768 122.744 439.518 122.888C438.926 123.23 438.396 123.284 437.726 122.897L434.515 121.043L436.058 120.152L434.218 119.09L432.675 119.981L430.384 118.658ZM441.138 121.539C442.338 122.232 444.443 122.295 446.08 121.35C447.218 120.693 447.42 119.964 447.202 119.388C447.498 119.559 447.95 119.784 448.2 119.874L450.102 118.776C449.79 118.65 449.197 118.362 448.792 118.128L445.02 115.95C443.476 115.059 441.2 114.789 438.769 116.193C436.711 117.381 436.929 118.785 438.005 119.55L440.234 118.713C439.626 118.29 439.548 117.669 440.452 117.147C441.325 116.643 442.198 116.661 442.744 116.976C443.009 117.129 443.087 117.336 442.713 117.624L441.107 118.875C440.016 119.721 439.766 120.747 441.138 121.539ZM444.973 120.207C444.303 120.594 443.539 120.531 443.087 120.27C442.494 119.928 442.619 119.514 443.071 119.163L444.536 118.011L444.879 118.209C446.236 118.992 445.846 119.703 444.973 120.207ZM451.943 118.199C453.626 118.919 456.339 118.865 458.443 117.65C461.327 115.985 460.547 114.221 458.443 113.006L451.6 109.055L449.604 110.207L450.509 110.729C449.729 110.585 448.498 110.684 447.282 111.386C445.177 112.601 445.427 114.437 447.453 115.607C449.604 116.849 452.706 116.876 454.749 115.697C455.855 115.058 456.089 114.365 455.902 113.897L456.463 114.221C457.944 115.076 457.866 115.877 456.557 116.633C455.575 117.2 454.297 117.236 453.314 116.831L451.943 118.199ZM453.33 114.464C452.254 115.085 450.742 115.094 449.542 114.401C448.357 113.717 448.42 112.817 449.448 112.223C450.446 111.647 452.005 111.611 453.19 112.295C454.374 112.979 454.39 113.852 453.33 114.464ZM458.173 108.68C457.518 108.248 457.3 107.438 458.376 106.817C459.56 106.133 460.807 106.277 461.602 106.7L458.173 108.68ZM463.8 107.735C464.237 108.275 464.19 108.86 463.224 109.418C462.195 110.012 460.605 110.084 459.545 109.526L465.032 106.358C465.001 106.34 464.72 106.142 464.424 105.971C461.961 104.549 459.03 104.495 456.661 105.863C454.697 106.997 454.479 108.959 456.926 110.372C459.514 111.866 462.881 111.668 464.985 110.453C466.871 109.364 466.981 108.023 466.045 107.033L463.8 107.735Z" fill="white"/>
<rect width="71.772" height="124.529" rx="9" transform="matrix(0.866025 0.5 -0.866025 0.5 584.856 146)" fill="#D5DCFE"/>
<a href="/platform/connect"><rect x="-2.98023e-08" y="0.5" width="70.772" height="123.529" rx="8.5" transform="matrix(0.866025 0.5 -0.866025 0.5 585.289 146.25)" stroke="#506CF0" stroke-opacity="0.07"/>
</a><path d="M540.698 207.507C543.8 205.716 543.332 203.61 542.054 202.386L539.435 203.196C540.168 203.961 540.479 205.203 538.593 206.292C536.816 207.318 533.87 207.525 531.516 206.166C529.006 204.717 529.568 203.025 531.22 202.071C533.137 200.964 535.164 201.144 536.489 201.603L537.876 200.064C535.647 199.281 532.202 199.11 529.147 200.874C526.185 202.584 525.764 205.419 529.287 207.453C532.81 209.487 537.611 209.289 540.698 207.507ZM548.742 200.685C547.729 201.27 546.046 201.378 544.611 200.55C543.162 199.713 543.364 198.75 544.378 198.165C545.391 197.58 547.059 197.463 548.509 198.3C549.958 199.137 549.756 200.1 548.742 200.685ZM542.491 197.076C540.2 198.399 540.169 200.379 542.538 201.747C544.892 203.106 548.337 203.097 550.629 201.774C552.92 200.451 552.936 198.462 550.582 197.103C548.212 195.735 544.783 195.753 542.491 197.076ZM553.715 194.628C552.826 194.115 552.655 193.404 553.559 192.882C554.557 192.306 555.648 192.45 556.505 192.945L560.979 195.528L563.052 194.331L558.22 191.541C556.536 190.569 554.307 190.29 552.405 191.388C551.579 191.865 551.018 192.603 551.345 193.332L550.395 192.783L548.384 193.944L556.053 198.372L558.126 197.175L553.715 194.628ZM562.818 189.372C561.93 188.859 561.758 188.148 562.662 187.626C563.66 187.05 564.751 187.194 565.609 187.689L570.083 190.272L572.156 189.075L567.323 186.285C565.64 185.313 563.411 185.034 561.509 186.132C560.683 186.609 560.122 187.347 560.449 188.076L559.498 187.527L557.487 188.688L565.157 193.116L567.23 191.919L562.818 189.372ZM571.064 184.269C570.41 183.837 570.191 183.027 571.267 182.406C572.452 181.722 573.699 181.866 574.494 182.289L571.064 184.269ZM576.692 183.324C577.128 183.864 577.082 184.449 576.115 185.007C575.086 185.601 573.496 185.673 572.436 185.115L577.923 181.947C577.892 181.929 577.612 181.731 577.315 181.56C574.852 180.138 571.922 180.084 569.552 181.452C567.588 182.586 567.37 184.548 569.817 185.961C572.405 187.455 575.772 187.257 577.877 186.042C579.763 184.953 579.872 183.612 578.937 182.622L576.692 183.324ZM580.335 177.44C581.364 176.846 582.502 176.945 583.328 177.206L584.56 175.775C582.939 175.217 580.46 175.154 578.371 176.36C576.142 177.647 576.095 179.636 578.465 181.004C580.819 182.363 584.31 182.327 586.571 181.022C588.613 179.843 588.504 178.394 587.568 177.458L585.137 178.16C585.558 178.601 585.729 179.312 584.669 179.924C583.609 180.536 581.925 180.608 580.538 179.807C579.151 179.006 579.275 178.052 580.335 177.44ZM584.042 170.71L582.172 171.79L583.247 172.411C583.933 172.807 584.089 173.329 583.279 173.797L582.889 174.022L584.728 175.084L586.116 174.283L589.685 176.344C591.166 177.199 592.99 177.172 594.487 176.308C595.095 175.957 595.36 175.678 595.469 175.525L593.754 174.535C593.676 174.616 593.427 174.796 593.177 174.94C592.585 175.282 592.055 175.336 591.385 174.949L588.173 173.095L589.717 172.204L587.877 171.142L586.334 172.033L584.042 170.71Z" fill="white"/>
<path d="M651.574 276.849L648.409 275.022L650.108 274.041C651.184 273.42 652.447 273.393 653.429 273.96C654.38 274.509 654.348 275.247 653.273 275.868L651.574 276.849ZM655.393 276.786C657.575 275.526 657.591 273.861 655.58 272.7C653.585 271.548 650.685 271.548 648.503 272.808L644.372 275.193L655.424 281.574L657.575 280.332L653.413 277.929L655.393 276.786ZM661.515 269.165C661.343 269.246 661.172 269.327 661 269.426C660.346 269.804 659.473 270.524 660.018 271.379L658.88 270.722L656.87 271.883L664.539 276.311L666.612 275.114L663.105 273.089C661.453 272.135 661.858 271.307 662.918 270.695C663.105 270.587 663.323 270.479 663.604 270.371L661.515 269.165ZM667.402 269.222C666.747 268.79 666.529 267.98 667.605 267.359C668.79 266.675 670.037 266.819 670.832 267.242L667.402 269.222ZM673.03 268.277C673.466 268.817 673.419 269.402 672.453 269.96C671.424 270.554 669.834 270.626 668.774 270.068L674.261 266.9C674.23 266.882 673.949 266.684 673.653 266.513C671.19 265.091 668.26 265.037 665.89 266.405C663.926 267.539 663.708 269.501 666.155 270.914C668.743 272.408 672.11 272.21 674.214 270.995C676.101 269.906 676.21 268.565 675.274 267.575L673.03 268.277ZM676.424 266.984C677.39 267.434 679.682 267.839 681.989 266.507C684 265.346 683.688 264.05 682.441 263.33C681.319 262.682 679.635 262.592 677.811 263.285L676.486 263.78C675.987 263.978 675.473 264.005 675.099 263.789C674.662 263.537 674.771 263.096 675.317 262.781C676.19 262.277 677.094 262.421 677.608 262.646L678.949 261.422C678.029 260.999 675.909 260.621 673.727 261.881C672.075 262.835 671.997 264.194 673.368 264.986C674.444 265.607 676.003 265.733 677.811 265.067L679.058 264.617C679.775 264.347 680.29 264.374 680.633 264.572C681.038 264.806 681.069 265.202 680.383 265.598C679.479 266.12 678.466 266.057 677.811 265.733L676.424 266.984ZM683.609 262.835C684.576 263.285 686.867 263.69 689.174 262.358C691.185 261.197 690.873 259.901 689.626 259.181C688.504 258.533 686.82 258.443 684.996 259.136L683.671 259.631C683.173 259.829 682.658 259.856 682.284 259.64C681.848 259.388 681.957 258.947 682.502 258.632C683.375 258.128 684.279 258.272 684.794 258.497L686.134 257.273C685.215 256.85 683.095 256.472 680.912 257.732C679.26 258.686 679.182 260.045 680.554 260.837C681.629 261.458 683.188 261.584 684.996 260.918L686.244 260.468C686.961 260.198 687.475 260.225 687.818 260.423C688.223 260.657 688.254 261.053 687.569 261.449C686.664 261.971 685.651 261.908 684.996 261.584L683.609 262.835Z" fill="white"/>
<path d="M513.085 348.436C511.921 347.988 509.86 347.722 507.775 348.926C506.15 349.864 505.944 351.327 507.472 352.209C508.769 352.958 510.539 352.958 512.188 352.328L513.631 351.775C514.431 351.467 515.195 351.474 515.692 351.761C516.298 352.111 516.25 352.657 515.353 353.175C514.14 353.875 512.782 353.777 511.861 353.329L510.721 354.463C512.079 355.093 514.552 355.359 516.832 354.043C518.832 352.888 518.602 351.481 517.28 350.718C516.068 350.018 514.213 349.913 512.346 350.641L510.915 351.201C510.163 351.495 509.484 351.453 509.012 351.18C508.442 350.851 508.454 350.242 509.266 349.773C510.357 349.143 511.485 349.346 512.043 349.57L513.085 348.436ZM524.784 351.902L521.898 350.236C522.589 350.299 523.523 350.138 524.347 349.662C526.033 348.689 525.826 347.268 524.02 346.225C522.25 345.203 519.91 345.014 518.164 346.022C517.267 346.54 517 347.156 517.194 347.576L516.466 347.156L514.902 348.059L523.171 352.833L524.784 351.902ZM522.444 347.149C523.511 347.765 523.474 348.5 522.65 348.976C521.825 349.452 520.528 349.473 519.473 348.864C518.418 348.255 518.467 347.513 519.291 347.037C520.116 346.561 521.389 346.54 522.444 347.149ZM529.686 344.928C528.898 345.383 527.588 345.467 526.473 344.823C525.345 344.172 525.503 343.423 526.291 342.968C527.079 342.513 528.376 342.422 529.504 343.073C530.631 343.724 530.474 344.473 529.686 344.928ZM524.824 342.121C523.042 343.15 523.017 344.69 524.86 345.754C526.691 346.811 529.37 346.804 531.153 345.775C532.935 344.746 532.947 343.199 531.116 342.142C529.273 341.078 526.606 341.092 524.824 342.121ZM533.553 340.217C532.862 339.818 532.729 339.265 533.432 338.859C534.208 338.411 535.057 338.523 535.723 338.908L539.203 340.917L540.816 339.986L537.057 337.816C535.748 337.06 534.014 336.843 532.535 337.697C531.892 338.068 531.456 338.642 531.71 339.209L530.971 338.782L529.407 339.685L535.372 343.129L536.984 342.198L533.553 340.217ZM540.282 338.376C541.034 338.726 542.816 339.041 544.61 338.005C546.174 337.102 545.932 336.094 544.962 335.534C544.089 335.03 542.78 334.96 541.361 335.499L540.331 335.884C539.943 336.038 539.542 336.059 539.251 335.891C538.912 335.695 538.997 335.352 539.421 335.107C540.1 334.715 540.803 334.827 541.203 335.002L542.246 334.05C541.531 333.721 539.882 333.427 538.185 334.407C536.899 335.149 536.839 336.206 537.906 336.822C538.742 337.305 539.955 337.403 541.361 336.885L542.331 336.535C542.889 336.325 543.289 336.346 543.556 336.5C543.871 336.682 543.895 336.99 543.362 337.298C542.658 337.704 541.87 337.655 541.361 337.403L540.282 338.376ZM549.411 333.539C548.623 333.994 547.314 334.078 546.199 333.434C545.071 332.783 545.229 332.034 546.017 331.579C546.805 331.124 548.102 331.033 549.23 331.684C550.357 332.335 550.2 333.084 549.411 333.539ZM544.55 330.732C542.767 331.761 542.743 333.301 544.586 334.365C546.417 335.422 549.096 335.415 550.879 334.386C552.661 333.357 552.673 331.81 550.842 330.753C548.999 329.689 546.332 329.703 544.55 330.732ZM552.745 326.182C552.612 326.245 552.479 326.308 552.345 326.385C551.836 326.679 551.157 327.239 551.582 327.904L550.696 327.393L549.132 328.296L555.098 331.74L556.71 330.809L553.982 329.234C552.697 328.492 553.012 327.848 553.837 327.372C553.982 327.288 554.152 327.204 554.37 327.12L552.745 326.182ZM557.734 328.3C558.486 328.65 560.268 328.965 562.063 327.929C563.627 327.026 563.384 326.018 562.414 325.458C561.542 324.954 560.232 324.884 558.814 325.423L557.783 325.808C557.395 325.962 556.995 325.983 556.704 325.815C556.364 325.619 556.449 325.276 556.874 325.031C557.553 324.639 558.256 324.751 558.656 324.926L559.699 323.974C558.983 323.645 557.334 323.351 555.637 324.331C554.352 325.073 554.291 326.13 555.358 326.746C556.195 327.229 557.407 327.327 558.814 326.809L559.783 326.459C560.341 326.249 560.741 326.27 561.008 326.424C561.323 326.606 561.348 326.914 560.814 327.222C560.111 327.628 559.323 327.579 558.814 327.327L557.734 328.3Z" fill="white"/>
<rect width="62.8173" height="66.5091" rx="9" transform="matrix(0.866025 -0.5 0.866025 0.5 387.011 397.409)" fill="#D5DCFE"/>
<rect x="0.866025" width="61.8173" height="65.5091" rx="8.5" transform="matrix(0.866025 -0.5 0.866025 0.5 387.127 397.842)" stroke="#506CF0" stroke-opacity="0.07"/>
<path d="M430.964 386.126C431.74 385.454 432.201 384.264 430.115 383.06C428.491 382.122 425.957 382.003 424.429 382.885C423.132 383.634 423.132 384.656 424.223 385.608L425.181 386.441C425.714 386.903 425.702 387.344 425.205 387.631C424.599 387.981 423.653 387.953 422.756 387.435C421.544 386.735 421.713 385.951 422.489 385.419L420.525 384.761C419.434 385.545 418.973 386.973 421.253 388.289C423.253 389.444 425.69 389.311 427.012 388.548C428.224 387.848 428.406 386.777 427.145 385.699L426.175 384.873C425.666 384.439 425.739 384.047 426.211 383.774C426.781 383.445 427.836 383.452 428.648 383.921C429.74 384.551 429.388 385.202 429 385.524L430.964 386.126ZM429.58 392.887L431.12 393.776C431.301 393.643 431.677 393.384 432.138 393.118L437.024 390.297L435.412 389.366L431.944 391.368C431.253 391.767 430.356 391.809 429.64 391.396C428.889 390.962 429.083 390.458 429.75 390.073L433.193 388.085L431.58 387.154L427.81 389.331C426.512 390.08 426.282 391.165 427.725 391.998C428.355 392.362 429.289 392.621 430.174 392.488C429.931 392.628 429.677 392.803 429.58 392.887ZM432.089 396.995L434.974 395.329C434.865 395.728 435.144 396.267 435.969 396.743C437.654 397.716 440.115 397.597 441.922 396.554C443.692 395.532 444.019 394.181 442.273 393.173C441.376 392.655 440.309 392.501 439.582 392.613L440.309 392.193L438.745 391.29L430.476 396.064L432.089 396.995ZM440.321 395.644C439.254 396.26 437.981 396.239 437.157 395.763C436.332 395.287 436.296 394.538 437.351 393.929C438.406 393.32 439.691 393.348 440.515 393.824C441.34 394.3 441.376 395.035 440.321 395.644ZM439.513 401.281L442.398 399.615C442.289 400.014 442.568 400.553 443.392 401.029C445.078 402.002 447.539 401.883 449.345 400.84C451.116 399.818 451.443 398.467 449.697 397.459C448.8 396.941 447.733 396.787 447.005 396.899L447.733 396.479L446.169 395.576L437.9 400.35L439.513 401.281ZM447.745 399.93C446.678 400.546 445.405 400.525 444.581 400.049C443.756 399.573 443.72 398.824 444.775 398.215C445.829 397.606 447.115 397.634 447.939 398.11C448.764 398.586 448.8 399.321 447.745 399.93ZM451.592 404.112C450.804 403.657 450.659 402.901 451.774 402.257C452.902 401.606 454.199 401.697 454.987 402.152C455.775 402.607 455.933 403.356 454.805 404.007C453.678 404.658 452.38 404.567 451.592 404.112ZM456.454 401.305C454.672 400.276 452.004 400.262 450.161 401.326C448.331 402.383 448.343 403.93 450.125 404.959C451.907 405.988 454.587 405.995 456.418 404.938C458.261 403.874 458.236 402.334 456.454 401.305ZM464.335 406.036C464.226 405.959 464.116 405.882 463.983 405.805C463.474 405.511 462.504 405.119 461.352 405.364L462.237 404.853L460.673 403.95L454.708 407.394L456.32 408.325L459.048 406.75C460.334 406.008 461.449 406.19 462.274 406.666C462.419 406.75 462.565 406.848 462.71 406.974L464.335 406.036ZM469.452 406.961L467.997 406.121L467.161 406.604C466.627 406.912 465.924 406.982 465.294 406.618L464.99 406.443L463.56 407.269L464.639 407.892L461.862 409.495C460.711 410.16 460.747 410.979 461.911 411.651C462.384 411.924 462.76 412.043 462.966 412.092L464.299 411.322C464.19 411.287 463.948 411.175 463.754 411.063C463.293 410.797 463.22 410.559 463.742 410.258L466.239 408.816L467.44 409.509L468.87 408.683L467.67 407.99L469.452 406.961Z" fill="white"/>
<rect width="125.461" height="178.674" rx="9" transform="matrix(0.866025 0.5 -0.866025 0.5 381.747 195.928)" fill="#D5DCFE"/>
<a href="/platform/sessions"><rect x="-2.98023e-08" y="0.5" width="124.461" height="177.674" rx="8.5" transform="matrix(0.866025 0.5 -0.866025 0.5 382.18 196.178)" stroke="#506CF0" stroke-opacity="0.07"/>
</a><path d="M330.478 277.988C328.981 277.412 326.331 277.07 323.65 278.618C321.561 279.824 321.296 281.705 323.261 282.839C324.928 283.802 327.204 283.802 329.324 282.992L331.179 282.281C332.208 281.885 333.19 281.894 333.829 282.263C334.609 282.713 334.547 283.415 333.393 284.081C331.834 284.981 330.088 284.855 328.904 284.279L327.438 285.737C329.184 286.547 332.364 286.889 335.295 285.197C337.867 283.712 337.571 281.903 335.872 280.922C334.313 280.022 331.928 279.887 329.527 280.823L327.688 281.543C326.721 281.921 325.848 281.867 325.24 281.516C324.508 281.093 324.523 280.31 325.568 279.707C326.971 278.897 328.42 279.158 329.137 279.446L330.478 277.988ZM337.455 278.244C336.801 277.812 336.583 277.002 337.658 276.381C338.843 275.697 340.09 275.841 340.885 276.264L337.455 278.244ZM343.083 277.299C343.519 277.839 343.473 278.424 342.506 278.982C341.477 279.576 339.887 279.648 338.827 279.09L344.314 275.922C344.283 275.904 344.003 275.706 343.706 275.535C341.243 274.113 338.313 274.059 335.943 275.427C333.979 276.561 333.761 278.523 336.208 279.936C338.796 281.43 342.163 281.232 344.268 280.017C346.154 278.928 346.263 277.587 345.328 276.597L343.083 277.299ZM346.477 276.005C347.444 276.455 349.735 276.86 352.042 275.528C354.053 274.367 353.741 273.071 352.494 272.351C351.372 271.703 349.688 271.613 347.864 272.306L346.539 272.801C346.041 272.999 345.526 273.026 345.152 272.81C344.716 272.558 344.825 272.117 345.37 271.802C346.243 271.298 347.147 271.442 347.662 271.667L349.002 270.443C348.083 270.02 345.963 269.642 343.78 270.902C342.128 271.856 342.05 273.215 343.422 274.007C344.497 274.628 346.056 274.754 347.864 274.088L349.112 273.638C349.829 273.368 350.343 273.395 350.686 273.593C351.091 273.827 351.122 274.223 350.437 274.619C349.532 275.141 348.519 275.078 347.864 274.754L346.477 276.005ZM353.662 271.857C354.629 272.307 356.92 272.712 359.227 271.38C361.238 270.219 360.927 268.923 359.68 268.203C358.557 267.555 356.874 267.465 355.05 268.158L353.725 268.653C353.226 268.851 352.711 268.878 352.337 268.662C351.901 268.41 352.01 267.969 352.556 267.654C353.429 267.15 354.333 267.294 354.847 267.519L356.188 266.295C355.268 265.872 353.148 265.494 350.966 266.754C349.313 267.708 349.235 269.067 350.607 269.859C351.683 270.48 353.241 270.606 355.05 269.94L356.297 269.49C357.014 269.22 357.528 269.247 357.871 269.445C358.277 269.679 358.308 270.075 357.622 270.471C356.718 270.993 355.704 270.93 355.05 270.606L353.662 271.857ZM365.711 267.366L358.042 262.938L355.968 264.135L363.638 268.563L365.711 267.366ZM353.209 262.83C353.895 263.226 355.049 263.226 355.75 262.821C356.467 262.407 356.452 261.75 355.766 261.354C355.049 260.94 353.911 260.931 353.194 261.345C352.492 261.75 352.492 262.416 353.209 262.83ZM369.724 263.142C368.71 263.727 367.027 263.835 365.593 263.007C364.143 262.17 364.346 261.207 365.359 260.622C366.372 260.037 368.04 259.92 369.49 260.757C370.94 261.594 370.737 262.557 369.724 263.142ZM363.473 259.533C361.181 260.856 361.15 262.836 363.519 264.204C365.873 265.563 369.318 265.554 371.61 264.231C373.901 262.908 373.917 260.919 371.563 259.56C369.194 258.192 365.764 258.21 363.473 259.533ZM374.696 257.085C373.808 256.572 373.636 255.861 374.54 255.339C375.538 254.763 376.629 254.907 377.486 255.402L381.96 257.985L384.034 256.788L379.201 253.998C377.518 253.026 375.288 252.747 373.387 253.845C372.56 254.322 371.999 255.06 372.327 255.789L371.376 255.24L369.365 256.401L377.034 260.829L379.108 259.632L374.696 257.085ZM383.347 254.718C384.314 255.168 386.605 255.573 388.913 254.241C390.923 253.08 390.612 251.784 389.365 251.064C388.242 250.416 386.559 250.326 384.735 251.019L383.41 251.514C382.911 251.712 382.397 251.739 382.022 251.523C381.586 251.271 381.695 250.83 382.241 250.515C383.114 250.011 384.018 250.155 384.532 250.38L385.873 249.156C384.953 248.733 382.833 248.355 380.651 249.615C378.998 250.569 378.92 251.928 380.292 252.72C381.368 253.341 382.927 253.467 384.735 252.801L385.982 252.351C386.699 252.081 387.213 252.108 387.556 252.306C387.962 252.54 387.993 252.936 387.307 253.332C386.403 253.854 385.39 253.791 384.735 253.467L383.347 254.718Z" fill="white"/>
<defs>
<filter id="filter0_d" x="0.79541" y="37.8936" width="841.071" height="449.838" filterUnits="userSpaceOnUse" color-interpolation-filters="sRGB">
<feFlood flood-opacity="0" result="BackgroundImageFix"/>
<feColorMatrix in="SourceAlpha" type="matrix" values="0 0 0 0 0 0 0 0 0 0 0 0 0 0 0 0 0 0 127 0"/>
<feOffset dy="4"/>
<feGaussianBlur stdDeviation="7.5"/>
<feColorMatrix type="matrix" values="0 0 0 0 0.313726 0 0 0 0 0.423529 0 0 0 0 0.941176 0 0 0 0.05 0"/>
<feBlend mode="normal" in2="BackgroundImageFix" result="effect1_dropShadow"/>
<feBlend mode="normal" in="SourceGraphic" in2="effect1_dropShadow" result="shape"/>
</filter>
<filter id="filter1_d" x="69.5764" y="160.636" width="193.883" height="115.319" filterUnits="userSpaceOnUse" color-interpolation-filters="sRGB">
<feFlood flood-opacity="0" result="BackgroundImageFix"/>
<feColorMatrix in="SourceAlpha" type="matrix" values="0 0 0 0 0 0 0 0 0 0 0 0 0 0 0 0 0 0 127 0"/>
<feOffset dy="4"/>
<feGaussianBlur stdDeviation="2"/>
<feColorMatrix type="matrix" values="0 0 0 0 0.375167 0 0 0 0 0.320833 0 0 0 0 1 0 0 0 0.25 0"/>
<feBlend mode="normal" in2="BackgroundImageFix" result="effect1_dropShadow"/>
<feBlend mode="normal" in="SourceGraphic" in2="effect1_dropShadow" result="shape"/>
</filter>
<filter id="filter2_d" x="158.011" y="146" width="48.8179" height="31.5662" filterUnits="userSpaceOnUse" color-interpolation-filters="sRGB">
<feFlood flood-opacity="0" result="BackgroundImageFix"/>
<feColorMatrix in="SourceAlpha" type="matrix" values="0 0 0 0 0 0 0 0 0 0 0 0 0 0 0 0 0 0 127 0"/>
<feOffset dy="4"/>
<feGaussianBlur stdDeviation="2"/>
<feColorMatrix type="matrix" values="0 0 0 0 0.241667 0 0 0 0 0.4085 0 0 0 0 1 0 0 0 0.25 0"/>
<feBlend mode="normal" in2="BackgroundImageFix" result="effect1_dropShadow"/>
<feBlend mode="normal" in="SourceGraphic" in2="effect1_dropShadow" result="shape"/>
</filter>
<linearGradient id="paint0_linear" x1="173.673" y1="162.833" x2="183.356" y2="146.062" gradientUnits="userSpaceOnUse">
<stop stop-color="#0047FD" stop-opacity="0.87"/>
<stop offset="1" stop-color="#00A3FF"/>
</linearGradient>
<linearGradient id="paint1_linear" x1="183.319" y1="157.264" x2="188.7" y2="147.943" gradientUnits="userSpaceOnUse">
<stop stop-color="#BA9AFF"/>
<stop offset="1" stop-color="#E2D5FF"/>
</linearGradient>
<linearGradient id="paint2_linear" x1="173.673" y1="162.833" x2="177.3" y2="156.55" gradientUnits="userSpaceOnUse">
<stop stop-color="#9AC2FF"/>
<stop offset="1" stop-color="#D5F2FF"/>
</linearGradient>
<linearGradient id="paint3_linear" x1="182.124" y1="157.954" x2="185.113" y2="152.776" gradientUnits="userSpaceOnUse">
<stop stop-color="#9AC2FF"/>
<stop offset="1" stop-color="#E7D5FF"/>
</linearGradient>
</defs>
</svg>
