<svg width="16" height="16" viewBox="0 0 16 16" fill="none" xmlns="http://www.w3.org/2000/svg">
<path d="M8.00004 7.33333C6.52728 7.33333 5.33337 6.13943 5.33337 4.66667C5.33337 3.19391 6.52728 2 8.00004 2C9.4728 2 10.6667 3.19391 10.6667 4.66667C10.6667 6.13943 9.4728 7.33333 8.00004 7.33333Z" fill="#506CF0"/>
<path d="M2.00043 13.466C2.25884 10.2842 4.84127 8.6665 7.98889 8.6665C11.1808 8.6665 13.8033 10.1953 13.9986 13.4665C14.0064 13.5968 13.9986 13.9998 13.4978 13.9998C11.0274 13.9998 7.35648 13.9998 2.485 13.9998C2.31781 13.9998 1.98636 13.6393 2.00043 13.466Z" fill="#506CF0"/>
</svg>
